# xmcd
#
# Track frame offsets: 
#        150
#        17887
#        34548
#        54912
#        73140
#        92313
#        110757
#        128088
#        147825
#
# Disc length: 2259 seconds
#
# Revision: 0
# Processed by: cddbd v1.5.2PL0 Copyright (c) Steve Scherf et al.
# Submitted via: ExactAudioCopy v1.0b1
#
DISCID=7308d109
DTITLE=Heikki Silvennoinen - Peace Of Mind
DYEAR=2010
DGENRE=Blues
TTITLE0=I´m Gonna Fight
TTITLE1=Open Up Your Heart
TTITLE2=Four Thousand Miles
TTITLE3=I´m Gonna Change My Life
TTITLE4=Stranger´s Land
TTITLE5=I´ll Fly Away
TTITLE6=So Sad
TTITLE7=I Sold My Home
TTITLE8=Shine
EXTD=
EXTT0=
EXTT1=
EXTT2=
EXTT3=
EXTT4=
EXTT5=
EXTT6=
EXTT7=
EXTT8=
PLAYORDER=
